<svg width="40" height="40" viewBox="0 0 40 40" fill="none" xmlns="http://www.w3.org/2000/svg">
<rect width="40" height="40" rx="12" fill="#393939"/>
<path d="M14.375 19.375H26.875C27.0408 19.375 27.1997 19.4408 27.3169 19.5581C27.4342 19.6753 27.5 19.8342 27.5 20C27.5 20.1658 27.4342 20.3247 27.3169 20.4419C27.1997 20.5592 27.0408 20.625 26.875 20.625H14.375C14.2092 20.625 14.0503 20.5592 13.9331 20.4419C13.8158 20.3247 13.75 20.1658 13.75 20C13.75 19.8342 13.8158 19.6753 13.9331 19.5581C14.0503 19.4408 14.2092 19.375 14.375 19.375Z" fill="white"/>
<path d="M14.6337 20L19.8175 25.1825C19.9348 25.2999 20.0008 25.459 20.0008 25.625C20.0008 25.791 19.9348 25.9501 19.8175 26.0675C19.7001 26.1849 19.541 26.2508 19.375 26.2508C19.209 26.2508 19.0498 26.1849 18.9325 26.0675L13.3075 20.4425C13.2493 20.3844 13.2031 20.3155 13.1716 20.2395C13.1401 20.1636 13.1239 20.0822 13.1239 20C13.1239 19.9178 13.1401 19.8364 13.1716 19.7605C13.2031 19.6845 13.2493 19.6156 13.3075 19.5575L18.9325 13.9325C19.0498 13.8151 19.209 13.7492 19.375 13.7492C19.541 13.7492 19.7001 13.8151 19.8175 13.9325C19.9348 14.0499 20.0008 14.209 20.0008 14.375C20.0008 14.541 19.9348 14.7001 19.8175 14.8175L14.6337 20Z" fill="white"/>
</svg>
