<svg width="20" height="22" viewBox="0 0 20 22" fill="none" xmlns="http://www.w3.org/2000/svg">
<path d="M18.9996 15.0897V10.0978C18.9996 5.80789 18.9996 3.66494 17.6816 2.33197C16.3636 1 14.2417 1 9.99979 1C5.75689 1 3.63594 1 2.31797 2.33197C1 3.66494 1 5.80989 1 10.0978V15.0907C1 18.1866 1 19.7356 1.73398 20.4115C2.08397 20.7345 2.52596 20.9375 2.99695 20.9915C3.98393 21.1045 5.1369 20.0846 7.44185 18.0456C8.46183 17.1446 8.97081 16.6936 9.5598 16.5756C9.84979 16.5156 10.1498 16.5156 10.4398 16.5756C11.0298 16.6936 11.5388 17.1446 12.5577 18.0456C14.8627 20.0846 16.0156 21.1045 17.0026 20.9905C17.4726 20.9375 17.9156 20.7345 18.2656 20.4115C18.9996 19.7356 18.9996 18.1866 18.9996 15.0897Z" stroke="#1E1E1E" stroke-width="1.1875"/>
<path d="M12.9997 4.99991H6.99988" stroke="#1E1E1E" stroke-width="1.1875" stroke-linecap="round"/>
</svg>
