<svg width="24" height="24" viewBox="0 0 24 24" fill="none" xmlns="http://www.w3.org/2000/svg">
<path d="M20.9996 16.0897V11.0978C20.9996 6.80789 20.9996 4.66494 19.6816 3.33197C18.3636 2 16.2417 2 11.9998 2C7.75689 2 5.63594 2 4.31797 3.33197C3 4.66494 3 6.80989 3 11.0978V16.0907C3 19.1866 3 20.7356 3.73398 21.4115C4.08397 21.7345 4.52596 21.9375 4.99695 21.9915C5.98393 22.1045 7.1369 21.0846 9.44185 19.0456C10.4618 18.1446 10.9708 17.6936 11.5598 17.5756C11.8498 17.5156 12.1498 17.5156 12.4398 17.5756C13.0298 17.6936 13.5388 18.1446 14.5577 19.0456C16.8627 21.0846 18.0156 22.1045 19.0026 21.9905C19.4726 21.9375 19.9156 21.7345 20.2656 21.4115C20.9996 20.7356 20.9996 19.1866 20.9996 16.0897Z" stroke="#868686" stroke-width="1.1875"/>
<path d="M14.9997 5.99991H8.99988" stroke="#868686" stroke-width="1.1875" stroke-linecap="round"/>
</svg>
