<svg width="24" height="24" viewBox="0 0 24 24" fill="none" xmlns="http://www.w3.org/2000/svg">
<path d="M2 10.5125C2 9.5295 2.48157 8.60887 3.28901 8.04824L10.8593 2.79198C11.5452 2.31576 12.4548 2.31576 13.1407 2.79198L20.711 8.04824C21.5184 8.60887 22 9.5295 22 10.5125V19.9998C22 21.1044 21.1046 21.9998 20 21.9998H4C2.89543 21.9998 2 21.1044 2 19.9998V10.5125Z" stroke="#868686" stroke-width="1.5" stroke-linejoin="round"/>
<path d="M8.66156 17.1568C8.66156 15.313 10.1563 13.8183 12 13.8183V13.8183C13.8438 13.8183 15.3385 15.313 15.3385 17.1568V22H8.66156V17.1568Z" stroke="#868686" stroke-width="1.5" stroke-linejoin="round"/>
<path d="M9.90149 9.66205H14.0984" stroke="#868686" stroke-width="1.5" stroke-linecap="round" stroke-linejoin="round"/>
</svg>
