<svg width="128" height="102" viewBox="0 0 128 102" fill="none" xmlns="http://www.w3.org/2000/svg">
<path d="M53.5124 9.85713C51.2087 10.1346 50.0731 12.1064 50.0669 13.8719C50.0638 14.7599 50.3416 15.6529 50.9478 16.2974C51.568 16.9567 52.4838 17.304 53.6322 17.1654L53.6322 17.1654L53.6355 17.165C65.994 15.5914 78.5498 17.0101 90.2455 21.3019C101.941 25.5936 112.435 32.6326 120.842 41.8263L120.842 41.8266C121.627 42.6827 122.565 43.0325 123.485 42.9795C124.389 42.9274 125.23 42.4896 125.859 41.8585C127.114 40.6002 127.643 38.4255 126.052 36.6807L126.051 36.6796C116.96 26.7675 105.639 19.1642 93.024 14.4997C80.4094 9.83518 66.8648 8.24371 53.5124 9.85713ZM53.5124 9.85713C53.5124 9.85712 53.5123 9.85714 53.5123 9.85714C53.5124 9.85714 53.5124 9.85713 53.5124 9.85713ZM76.4102 40.8124V40.7903C86.8825 43.3657 96.3508 49.0154 103.593 57.0194L103.594 57.0204C104.374 57.8785 105.31 58.2302 106.229 58.1782C107.133 58.1271 107.972 57.6897 108.601 57.0591C109.855 55.8019 110.386 53.6275 108.799 51.8825L108.798 51.882C100.512 42.7951 89.6742 36.423 77.7049 33.6005L77.7037 33.6002C75.4019 33.0634 73.7741 34.594 73.3007 36.3073C73.0634 37.1663 73.0978 38.114 73.4973 38.9282C73.9036 39.7564 74.6676 40.4038 75.7961 40.6684L76.4102 40.8124Z" fill="black" stroke="black"/>
<path d="M63.8855 89.6582C68.0681 89.6582 71.4588 86.2675 71.4588 82.0848C71.4588 77.9022 68.0681 74.5115 63.8855 74.5115C59.7028 74.5115 56.3121 77.9022 56.3121 82.0848C56.3121 86.2675 59.7028 89.6582 63.8855 89.6582Z" fill="black" stroke="black"/>
<path d="M18.9708 51.9917L18.97 51.9926C17.395 53.7507 17.9157 55.9308 19.16 57.1929C19.7839 57.8257 20.6183 58.2646 21.5175 58.3141C22.4329 58.3644 23.3623 58.0071 24.1356 57.1439C30.84 49.6972 39.4695 44.2483 49.071 41.3955L62.9908 55.3153C58.5068 55.45 54.0865 56.4445 49.9713 58.2487C45.4914 60.2128 41.4723 63.0929 38.1726 66.7038C36.587 68.4368 37.1363 70.6072 38.3944 71.8565C39.0262 72.4838 39.8676 72.9189 40.7707 72.967C41.6898 73.016 42.623 72.6603 43.3971 71.7966C46.858 67.9703 51.3161 65.1833 56.2718 63.748C61.186 62.3247 66.3969 62.2863 71.3301 63.6357L108.119 100.425C108.46 100.766 108.865 101.036 109.31 101.221C109.756 101.405 110.233 101.5 110.715 101.5C111.197 101.5 111.674 101.405 112.12 101.221C112.565 101.036 112.97 100.766 113.31 100.425C113.651 100.084 113.922 99.6794 114.106 99.2341C114.291 98.7887 114.386 98.3114 114.386 97.8293C114.386 97.3473 114.291 96.87 114.106 96.4246C113.922 95.9793 113.651 95.5746 113.31 95.2338L19.6517 1.57511C18.9633 0.886728 18.0297 0.5 17.0562 0.5C16.0827 0.5 15.149 0.886728 14.4606 1.57511C13.7722 2.26349 13.3855 3.19714 13.3855 4.17066C13.3855 5.14418 13.7722 6.07783 14.4606 6.76621L25.9711 18.2767C16.8292 22.9312 8.62402 29.2355 1.77009 36.8736C1.39752 37.1946 1.09342 37.5876 0.876094 38.029C0.653486 38.4812 0.526735 38.9745 0.503792 39.478C0.480849 39.9815 0.562209 40.4843 0.742769 40.9549L1.20958 40.7758L0.74277 40.9549C0.923331 41.4255 1.19919 41.8536 1.55305 42.2125C1.90691 42.5714 2.33112 42.8534 2.79908 43.0406C3.26703 43.2278 3.76863 43.3163 4.2724 43.3005C4.77617 43.2847 5.27124 43.1649 5.72654 42.9488L5.51209 42.4971L5.72654 42.9488C6.18037 42.7333 6.58494 42.4266 6.91502 42.048C13.8186 34.404 22.153 28.1883 31.446 23.7516L43.3291 35.6347C33.9872 38.9899 25.6172 44.6081 18.9708 51.9917Z" fill="black" stroke="black"/>
</svg>
